<?xml version="1.0" standalone="no"?>
<!DOCTYPE svg PUBLIC "-//W3C//DTD SVG 20010904//EN"
 "http://www.w3.org/TR/2001/REC-SVG-20010904/DTD/svg10.dtd">
<svg version="1.0" xmlns="http://www.w3.org/2000/svg"
 width="600.000000pt" height="600.000000pt" viewBox="0 0 600.000000 600.000000"
 preserveAspectRatio="xMidYMid meet">
<metadata>
Created by potrace 1.14, written by Peter Selinger 2001-2017
</metadata>
<g transform="translate(0.000000,600.000000) scale(0.100000,-0.100000)"
fill="#000000" stroke="none">
<path d="M0 3000 l0 -3000 1729 0 1729 0 139 70 c435 222 808 528 1101 903
317 407 527 859 632 1357 24 114 25 121 34 195 4 28 9 61 11 75 19 105 27 520
13 680 -9 104 -36 291 -54 375 -9 39 -18 81 -20 93 -3 13 -12 49 -20 80 -9 32
-19 71 -24 87 -71 265 -232 616 -397 869 -59 90 -193 273 -225 307 -7 8 -35
41 -63 73 -49 59 -209 221 -282 286 -217 194 -462 359 -740 499 l-103 51
-1730 0 -1730 0 0 -3000z"/>
</g>
</svg>
