<?xml version="1.0" standalone="no"?>
<!DOCTYPE svg PUBLIC "-//W3C//DTD SVG 20010904//EN"
 "http://www.w3.org/TR/2001/REC-SVG-20010904/DTD/svg10.dtd">
<svg version="1.0" xmlns="http://www.w3.org/2000/svg"
 width="600.000000pt" height="600.000000pt" viewBox="0 0 600.000000 600.000000"
 preserveAspectRatio="xMidYMid meet">
<metadata>
Created by potrace 1.14, written by Peter Selinger 2001-2017
</metadata>
<g transform="translate(0.000000,600.000000) scale(0.100000,-0.100000)"
fill="#000000" stroke="none">
<path d="M0 3171 l0 -2828 88 89 c163 167 331 289 547 393 411 200 851 255
1346 169 l36 -6 6 158 c3 88 13 192 22 231 148 667 750 1154 1483 1202 506 33
982 -138 1318 -473 126 -126 192 -212 263 -341 102 -185 170 -424 171 -601 l0
-52 78 -17 c139 -30 350 -106 497 -179 l145 -72 0 2578 0 2578 -3000 0 -3000
0 0 -2829z"/>
</g>
</svg>
