<?xml version="1.0" standalone="no"?>
<!DOCTYPE svg PUBLIC "-//W3C//DTD SVG 20010904//EN"
 "http://www.w3.org/TR/2001/REC-SVG-20010904/DTD/svg10.dtd">
<svg version="1.0" xmlns="http://www.w3.org/2000/svg"
 width="600.000000pt" height="600.000000pt" viewBox="0 0 600.000000 600.000000"
 preserveAspectRatio="xMidYMid meet">
<metadata>
Created by potrace 1.14, written by Peter Selinger 2001-2017
</metadata>
<g transform="translate(0.000000,600.000000) scale(0.100000,-0.100000)"
fill="#000000" stroke="none">
<path d="M0 4881 l0 -1119 88 -21 c905 -212 1862 2 2594 581 132 104 392 364
496 495 256 324 449 704 556 1093 l25 90 -1880 0 -1879 0 0 -1119z"/>
<path d="M4160 5995 c0 -28 -59 -294 -85 -384 -154 -536 -422 -1000 -805
-1395 -492 -507 -1113 -834 -1804 -951 -224 -38 -385 -48 -641 -42 -286 8
-453 29 -707 93 -53 13 -101 24 -107 24 -8 0 -11 -440 -11 -1494 l0 -1493 103
101 c336 333 764 528 1262 577 178 17 483 0 627 -36 l23 -6 1 128 c1 148 22
279 65 408 191 574 735 987 1389 1055 246 25 482 0 725 -77 355 -113 661 -341
857 -638 137 -207 209 -419 233 -686 l6 -67 62 -12 c116 -22 360 -110 496
-177 75 -37 139 -69 144 -71 4 -2 7 1155 7 2572 l0 2576 -920 0 c-506 0 -920
-2 -920 -5z"/>
</g>
</svg>
