<?xml version="1.0" standalone="no"?>
<!DOCTYPE svg PUBLIC "-//W3C//DTD SVG 20010904//EN"
 "http://www.w3.org/TR/2001/REC-SVG-20010904/DTD/svg10.dtd">
<svg version="1.0" xmlns="http://www.w3.org/2000/svg"
 width="1140.000000pt" height="1140.000000pt" viewBox="0 0 1140.000000 1140.000000"
 preserveAspectRatio="xMidYMid meet">
<metadata>
Created by potrace 1.14, written by Peter Selinger 2001-2017
</metadata>
<g transform="translate(0.000000,1140.000000) scale(0.100000,-0.100000)"
fill="#000000" stroke="none">
<path d="M0 5700 l0 -5680 5700 0 5700 0 0 5680 0 5680 -5700 0 -5700 0 0
-5680z m5752 5150 c71 -27 142 -94 177 -170 l26 -55 3 -757 c2 -746 2 -757
-19 -812 -29 -78 -102 -156 -180 -191 -88 -39 -190 -39 -278 0 -78 35 -151
113 -180 190 -21 55 -21 71 -21 803 l0 747 23 56 c76 182 261 261 449 189z
m-3367 -1403 c53 -25 119 -87 581 -550 330 -330 529 -537 542 -562 32 -65 46
-151 33 -219 -42 -228 -287 -348 -496 -244 -25 13 -232 212 -562 542 -464 463
-525 528 -550 581 -38 84 -43 178 -12 260 30 82 112 166 194 201 82 34 184 31
270 -9z m6732 12 c81 -30 172 -122 203 -204 30 -82 25 -176 -13 -260 -25 -53
-86 -118 -550 -581 -330 -330 -537 -529 -562 -542 -300 -150 -613 164 -463
463 19 38 963 997 1051 1067 95 76 223 98 334 57z m-3190 -1674 c639 -97 1201
-498 1506 -1075 157 -298 231 -602 231 -950 0 -125 -6 -221 -17 -297 -101
-652 -496 -1209 -1077 -1516 -195 -103 -429 -179 -653 -214 -152 -23 -442 -23
-594 0 -652 101 -1210 497 -1516 1077 -103 196 -179 429 -214 653 -23 152 -23
442 0 594 101 652 497 1210 1077 1516 239 126 512 204 800 231 84 8 355 -4
457 -19z m-3602 -1706 c77 -29 155 -102 190 -180 39 -88 39 -190 0 -278 -35
-78 -113 -151 -191 -180 -55 -21 -66 -21 -812 -19 l-757 3 -55 26 c-201 94
-261 355 -121 526 38 46 76 73 140 99 l56 24 747 0 c732 0 748 0 803 -21z
m8217 -11 c260 -122 259 -495 -2 -617 l-55 -26 -757 -3 c-746 -2 -757 -2 -812
19 -78 29 -156 102 -191 180 -22 51 -28 77 -28 139 0 103 35 181 110 250 103
95 50 89 918 87 l760 -2 57 -27z m-7185 -2419 c159 -76 229 -263 163 -434 -21
-57 -51 -88 -549 -587 -588 -589 -575 -579 -716 -586 -102 -5 -172 23 -251
102 -79 79 -107 149 -102 251 7 141 -2 129 581 712 287 286 537 528 554 537
106 53 218 55 320 5z m4810 10 c55 -20 89 -52 585 -548 589 -588 579 -575 586
-716 5 -102 -23 -172 -102 -251 -79 -79 -149 -107 -251 -102 -141 7 -128 -3
-716 586 -498 499 -528 530 -549 587 -33 86 -32 191 2 265 83 177 257 247 445
179z m-2404 -1007 c74 -32 148 -111 176 -188 21 -55 21 -66 19 -812 l-3 -757
-27 -57 c-66 -141 -221 -220 -370 -189 -34 7 -78 21 -98 31 -56 28 -119 96
-148 158 l-27 57 -3 757 c-2 744 -2 757 18 812 12 30 41 78 67 106 102 114
253 145 396 82z"/>
<path d="M5385 7104 c-371 -62 -724 -302 -925 -629 -136 -221 -200 -450 -200
-716 0 -366 125 -677 379 -942 262 -274 599 -417 981 -417 382 0 719 143 981
417 254 265 379 576 379 942 0 431 -187 812 -530 1083 -162 128 -395 229 -602
262 -118 19 -350 19 -463 0z"/>
</g>
</svg>
